<svg width="54" height="60" viewBox="0 0 54 60" fill="none" xmlns="http://www.w3.org/2000/svg">
<g filter="url(#filter0_d_1_132)">
<path d="M40.0781 5.46875H31.875V10.9375H40.0781V5.46875Z" fill="#C8C8C8"/>
<path d="M27.5 26.7969C23.58 26.7969 20.3906 23.6075 20.3906 19.6875C20.3906 15.7675 23.58 12.5781 27.5 12.5781C31.42 12.5781 34.6094 15.7675 34.6094 19.6875C34.6094 23.6075 31.42 26.7969 27.5 26.7969Z" fill="#C8C8C8"/>
<path d="M40.625 30.5364V5.46875L39.4115 0.546875H15.5885L14.375 5.40148V30.5364L13.8281 32.177V34.4531H41.1719V32.177L40.625 30.5364ZM15.4688 27.8906V11.4844H39.5312V27.8906H37.3438V28.9844H39.5312V30.0781H15.4688V28.9844H36.25V27.8906H15.4688ZM21.4844 6.01562V10.3906H15.4688V6.01562H21.4844ZM39.5312 10.3906H22.5781V6.01562H39.5312V10.3906ZM38.5573 1.64062L39.3776 4.92188H15.6224L16.4427 1.64062H38.5573ZM40.0781 33.3594H14.9219V32.3542L15.3162 31.1719H39.6844L40.0781 32.3542V33.3594Z" fill="#C8C8C8"/>
<path d="M27.5 14.7656C24.7864 14.7656 22.5781 16.9734 22.5781 19.6875C22.5781 22.4016 24.7864 24.6094 27.5 24.6094C29.1412 24.6094 30.6702 23.7748 31.5802 22.4219H34.6094V21.3281H31.875V18.0469H34.6094V16.9531H31.5802C30.6702 15.6002 29.1412 14.7656 27.5 14.7656ZM27.5 23.5156C25.3891 23.5156 23.6719 21.7979 23.6719 19.6875C23.6719 17.5771 25.3891 15.8594 27.5 15.8594C28.8415 15.8594 30.0911 16.573 30.7812 17.722V21.6535C30.0911 22.802 28.8415 23.5156 27.5 23.5156Z" fill="#C8C8C8"/>
<path d="M24.7656 8.75H25.96C26.1864 9.38492 26.788 9.84375 27.5 9.84375C28.212 9.84375 28.8136 9.38492 29.04 8.75H30.2344V7.65625H29.04C28.8136 7.02133 28.212 6.5625 27.5 6.5625C26.788 6.5625 26.1864 7.02133 25.96 7.65625H24.7656V8.75ZM27.5 7.65625C27.8013 7.65625 28.0469 7.90125 28.0469 8.20312C28.0469 8.505 27.8013 8.75 27.5 8.75C27.1987 8.75 26.9531 8.505 26.9531 8.20312C26.9531 7.90125 27.1987 7.65625 27.5 7.65625Z" fill="#C8C8C8"/>
<path d="M34.0625 7.65625H32.9688V8.75H34.0625V7.65625Z" fill="#C8C8C8"/>
<path d="M36.25 7.65625H35.1562V8.75H36.25V7.65625Z" fill="#C8C8C8"/>
<path d="M38.4375 7.65625H37.3438V8.75H38.4375V7.65625Z" fill="#C8C8C8"/>
<path d="M24.2188 2.73438H17.6562V3.82812H24.2188V2.73438Z" fill="#C8C8C8"/>
<path d="M26.4062 2.73438H25.3125V3.82812H26.4062V2.73438Z" fill="#C8C8C8"/>
<path d="M20.3906 7.65625H16.5625V8.75H20.3906V7.65625Z" fill="#C8C8C8"/>
<path d="M7.394 47.971H5.106V51H4.105V42.004H7.394C8.37333 42.004 9.097 42.2423 9.565 42.719C10.033 43.1957 10.267 43.9237 10.267 44.903C10.267 46.9483 9.30933 47.971 7.394 47.971ZM5.106 47.087H7.381C8.62033 47.087 9.24 46.359 9.24 44.903C9.24 44.2097 9.09267 43.7027 8.798 43.382C8.50333 43.0527 8.031 42.888 7.381 42.888H5.106V47.087ZM16.0113 50.194L16.3883 50.155L16.4143 50.922C15.4263 51.0607 14.5813 51.13 13.8793 51.13C12.9433 51.13 12.2803 50.8613 11.8903 50.324C11.5003 49.778 11.3053 48.933 11.3053 47.789C11.3053 45.5097 12.2109 44.37 14.0223 44.37C14.8976 44.37 15.5519 44.617 15.9853 45.111C16.4186 45.5963 16.6353 46.3633 16.6353 47.412L16.5833 48.153H12.2933C12.2933 48.8723 12.4233 49.4053 12.6833 49.752C12.9433 50.0987 13.3939 50.272 14.0353 50.272C14.6853 50.272 15.3439 50.246 16.0113 50.194ZM15.6603 47.373C15.6603 46.5757 15.5303 46.0123 15.2703 45.683C15.0189 45.3537 14.6029 45.189 14.0223 45.189C13.4503 45.189 13.0169 45.3623 12.7223 45.709C12.4363 46.0557 12.2889 46.6103 12.2803 47.373H15.6603ZM20.1958 45.241C19.2511 45.241 18.7788 45.5703 18.7788 46.229C18.7788 46.5323 18.8871 46.749 19.1038 46.879C19.3204 47.0003 19.8144 47.1303 20.5858 47.269C21.3571 47.399 21.9031 47.5853 22.2238 47.828C22.5444 48.0707 22.7048 48.5257 22.7048 49.193C22.7048 49.8603 22.4881 50.35 22.0548 50.662C21.6301 50.974 21.0061 51.13 20.1828 51.13C19.6454 51.13 19.0128 51.0693 18.2848 50.948L17.8948 50.883L17.9468 50.038C18.9348 50.1853 19.6801 50.259 20.1828 50.259C20.6854 50.259 21.0668 50.181 21.3268 50.025C21.5954 49.8603 21.7298 49.5917 21.7298 49.219C21.7298 48.8377 21.6171 48.582 21.3918 48.452C21.1664 48.3133 20.6724 48.1833 19.9098 48.062C19.1471 47.9407 18.6054 47.763 18.2848 47.529C17.9641 47.295 17.8038 46.8617 17.8038 46.229C17.8038 45.5963 18.0248 45.1283 18.4668 44.825C18.9174 44.5217 19.4764 44.37 20.1438 44.37C20.6724 44.37 21.3354 44.4307 22.1328 44.552L22.4968 44.617L22.4708 45.449C21.5088 45.3103 20.7504 45.241 20.1958 45.241ZM28.7867 46.463V49.791C28.8127 50.1117 29.0641 50.3023 29.5407 50.363L29.5017 51.13C28.8171 51.13 28.3014 50.9567 27.9547 50.61C27.1747 50.9567 26.3947 51.13 25.6147 51.13C25.0167 51.13 24.5617 50.961 24.2497 50.623C23.9377 50.285 23.7817 49.7997 23.7817 49.167C23.7817 48.5343 23.9421 48.0707 24.2627 47.776C24.5834 47.4727 25.0861 47.2863 25.7707 47.217L27.8117 47.022V46.463C27.8117 46.021 27.7164 45.7047 27.5257 45.514C27.3351 45.3233 27.0751 45.228 26.7457 45.228C26.0524 45.228 25.3331 45.2713 24.5877 45.358L24.1847 45.397L24.1457 44.656C25.0991 44.4653 25.9441 44.37 26.6807 44.37C27.4174 44.37 27.9504 44.539 28.2797 44.877C28.6177 45.215 28.7867 45.7437 28.7867 46.463ZM24.7827 49.115C24.7827 49.9123 25.1121 50.311 25.7707 50.311C26.3601 50.311 26.9407 50.2113 27.5127 50.012L27.8117 49.908V47.763L25.8877 47.945C25.4977 47.9797 25.2161 48.0923 25.0427 48.283C24.8694 48.4737 24.7827 48.751 24.7827 49.115ZM31.6854 51H30.7104V44.5H31.6724V44.955C32.3744 44.565 33.0461 44.37 33.6874 44.37C34.5541 44.37 35.1347 44.604 35.4294 45.072C35.7327 45.54 35.8844 46.372 35.8844 47.568V51H34.9224V47.594C34.9224 46.6927 34.8314 46.0773 34.6494 45.748C34.4761 45.41 34.0991 45.241 33.5184 45.241C33.2411 45.241 32.9464 45.2843 32.6344 45.371C32.3311 45.449 32.0971 45.527 31.9324 45.605L31.6854 45.722V51ZM42.2818 46.463V49.791C42.3078 50.1117 42.5592 50.3023 43.0358 50.363L42.9968 51.13C42.3122 51.13 41.7965 50.9567 41.4498 50.61C40.6698 50.9567 39.8898 51.13 39.1098 51.13C38.5118 51.13 38.0568 50.961 37.7448 50.623C37.4328 50.285 37.2768 49.7997 37.2768 49.167C37.2768 48.5343 37.4372 48.0707 37.7578 47.776C38.0785 47.4727 38.5812 47.2863 39.2658 47.217L41.3068 47.022V46.463C41.3068 46.021 41.2115 45.7047 41.0208 45.514C40.8302 45.3233 40.5702 45.228 40.2408 45.228C39.5475 45.228 38.8282 45.2713 38.0828 45.358L37.6798 45.397L37.6408 44.656C38.5942 44.4653 39.4392 44.37 40.1758 44.37C40.9125 44.37 41.4455 44.539 41.7748 44.877C42.1128 45.215 42.2818 45.7437 42.2818 46.463ZM38.2778 49.115C38.2778 49.9123 38.6072 50.311 39.2658 50.311C39.8552 50.311 40.4358 50.2113 41.0078 50.012L41.3068 49.908V47.763L39.3828 47.945C38.9928 47.9797 38.7112 48.0923 38.5378 48.283C38.3645 48.4737 38.2778 48.751 38.2778 49.115ZM45.1805 51H44.2055V44.5H45.1675V44.955C45.8695 44.565 46.5412 44.37 47.1825 44.37C48.0492 44.37 48.6299 44.604 48.9245 45.072C49.2279 45.54 49.3795 46.372 49.3795 47.568V51H48.4175V47.594C48.4175 46.6927 48.3265 46.0773 48.1445 45.748C47.9712 45.41 47.5942 45.241 47.0135 45.241C46.7362 45.241 46.4415 45.2843 46.1295 45.371C45.8262 45.449 45.5922 45.527 45.4275 45.605L45.1805 45.722V51Z" fill="#C8C8C8"/>
</g>
<defs>
<filter id="filter0_d_1_132" x="0.105011" y="0" width="53.2745" height="59.13" filterUnits="userSpaceOnUse" color-interpolation-filters="sRGB">
<feFlood flood-opacity="0" result="BackgroundImageFix"/>
<feColorMatrix in="SourceAlpha" type="matrix" values="0 0 0 0 0 0 0 0 0 0 0 0 0 0 0 0 0 0 127 0" result="hardAlpha"/>
<feOffset dy="4"/>
<feGaussianBlur stdDeviation="2"/>
<feComposite in2="hardAlpha" operator="out"/>
<feColorMatrix type="matrix" values="0 0 0 0 0 0 0 0 0 0 0 0 0 0 0 0 0 0 0.25 0"/>
<feBlend mode="normal" in2="BackgroundImageFix" result="effect1_dropShadow_1_132"/>
<feBlend mode="normal" in="SourceGraphic" in2="effect1_dropShadow_1_132" result="shape"/>
</filter>
</defs>
</svg>
